<svg width="480" height="120" viewBox="0 0 480 120" fill="none" xmlns="http://www.w3.org/2000/svg">
  <rect x="1" y="1" width="478" height="118" rx="20" fill="#F5FBFA" stroke="#0B3D44" stroke-width="2"/>
  <rect x="18" y="20" width="80" height="80" rx="16" fill="#0B3D44"/>
  <path d="M42 78V41H57.4C67.6 41 73.5 46.5 73.5 55.8C73.5 65.1 67.6 70.6 57.4 70.6H49.6V78H42ZM49.6 64.3H56.8C62.2 64.3 65.8 61.5 65.8 55.8C65.8 50.1 62.2 47.3 56.8 47.3H49.6V64.3Z" fill="#D8ECE9"/>
  <path d="M208.893 72V41.1364H218.262C228.975 41.1364 236.199 47.5341 236.199 56.5682C236.199 65.6023 228.975 72 218.262 72H208.893ZM214.537 67.2273H217.926C225.669 67.2273 230.412 62.9318 230.412 56.5682C230.412 50.2045 225.669 45.9091 217.926 45.9091H214.537V67.2273Z" fill="#0A4F58"/>
  <path d="M242.995 72V41.1364H248.639V67.2273H262.166V72H242.995Z" fill="#0A4F58"/>
  <path d="M266.057 72L277.109 41.1364H283.985L295.038 72H288.932L286.683 65.3295H274.325L272.075 72H266.057ZM275.865 60.8636H285.112L280.488 47.4886H280.368L275.865 60.8636Z" fill="#0A4F58"/>
  <path d="M300.062 72V41.1364H313.952C319.504 41.1364 323.947 44.4545 323.947 49.9432C323.947 54.0227 321.638 56.9602 317.984 57.9659V58.0852C322.667 58.8182 325.516 62.2386 325.516 66.75C325.516 72.392 320.923 76 314.54 76H300.062V72ZM305.706 54.8864H312.556C316.056 54.8864 318.304 52.875 318.304 49.9432C318.304 47.0114 316.056 45 312.556 45H305.706V54.8864ZM305.706 67.2273H313.978C317.806 67.2273 319.872 65.2784 319.872 62.0909C319.872 58.9034 317.625 56.8864 313.978 56.8864H305.706V67.2273Z" fill="#0A4F58"/>
  <path d="M332.005 72V41.1364H337.649V72H332.005Z" fill="#0A4F58"/>
  <path d="M344.256 72V41.1364H349.9V67.2273H363.427V72H344.256Z" fill="#0A4F58"/>
  <text x="380" y="53" fill="#0A4F58" font-family="Work Sans, Arial, sans-serif" font-size="13" font-weight="700" letter-spacing="1">ESCRITORIO</text>
  <text x="380" y="73" fill="#0A4F58" font-family="Work Sans, Arial, sans-serif" font-size="13" font-weight="500" letter-spacing="1">CONTABIL</text>
</svg>
